<svg width="1024" height="1024" viewBox="0 0 1024 1024" fill="none" xmlns="http://www.w3.org/2000/svg">
<rect width="1024" height="1024" fill="#1E1E1E"/>
<path d="M598.294 117.057C600.453 117.552 602.613 118.047 604.838 118.557C659.551 131.398 711.769 154.506 755.428 190.198C757.058 191.516 758.688 192.833 760.368 194.191C779.261 209.579 797.244 225.132 812.322 244.376C814.396 246.925 816.471 249.474 818.608 252.101C877.609 325.607 907.538 412.897 907.795 507.072C907.821 512.832 907.906 518.588 907.991 524.347C908.197 551.092 904.888 575.887 899.017 601.953C898.492 604.324 897.968 606.694 897.428 609.137C872.692 714.698 804.176 804.186 712.735 861.033C633.565 909.071 537.791 927.937 446.578 910.77C441.957 909.931 441.957 909.931 437.243 909.076C396.673 901.09 360.836 886.892 324.663 867.427C321.817 865.922 318.97 864.417 316.038 862.866C248.169 825.286 194.881 765.097 159.401 696.765C158.012 694.116 158.012 694.116 156.596 691.413C141.71 662.62 131.145 633.613 124.181 601.953C123.475 598.831 122.77 595.709 122.043 592.493C116.14 564.924 114.741 538.322 115.037 510.189C115.05 508.049 115.062 505.91 115.075 503.706C115.29 472.675 116.071 442.458 124.181 412.329C124.967 409.308 124.967 409.308 125.768 406.226C137.752 361.457 156.578 317.287 183.784 279.592C184.794 278.189 185.804 276.785 186.845 275.34C250.592 187.881 342.905 129.44 450.026 111.303C498.629 104.359 550.509 105.503 598.294 117.057Z" fill="#243931"/>
<path d="M713.312 259.133C734.977 307.788 724.721 384.349 713.312 435.258C712.861 437.342 712.411 439.427 711.947 441.574C697.596 506.331 670.715 564.131 623.888 611.383C622.187 613.216 620.486 615.05 618.733 616.94C569.277 669.417 496.515 691.69 427.087 699.985C390.946 703.486 390.946 703.486 361.036 722.477C358.741 724.625 356.446 726.773 354.081 728.986C344.08 738.666 334.677 748.303 326.485 759.565C320.388 765.831 320.388 765.831 311.92 766C304.212 763.151 301.401 760.856 296 754.992C296.979 753.756 297.958 752.52 298.967 751.246C316.672 728.83 334.111 706.345 350.366 682.849C379.34 641.138 412.768 602.375 446.903 564.811C455.061 555.833 462.832 546.652 470.445 537.207C480.419 524.871 490.908 513.202 501.706 501.598C512.019 490.45 521.59 478.803 531.109 466.969C537.304 459.487 543.775 452.368 550.384 445.25C563.571 430.931 575.561 415.867 587.454 400.478C593.202 393.041 599.024 385.676 604.919 378.356C567.098 401.664 532.34 427.34 499.236 456.935C497.658 458.342 496.08 459.748 494.455 461.198C478.668 475.335 463.148 489.503 449.528 505.793C444.371 511.922 438.954 517.77 433.523 523.659C399.928 560.959 370.929 602.164 344.11 644.515C337.606 654.739 330.901 664.396 323.098 673.704C315.905 665.266 313.099 658.032 310.565 647.285C309.916 644.617 309.266 641.948 308.596 639.199C300.901 600.447 300.581 557.758 309.549 519.256C310.108 516.605 310.667 513.954 311.243 511.222C322.111 463.246 345.951 424.171 380.004 389.195C382.09 386.942 384.175 384.689 386.324 382.368C403.17 364.652 421.726 350.687 442.33 337.712C445.195 335.903 448.059 334.093 451.01 332.229C488.464 309.776 530.06 291.559 572.402 280.81C574.455 280.28 576.508 279.751 578.623 279.205C621.918 268.195 668.386 257.691 713.312 259.133Z" fill="#ACC08D"/>
</svg>
